#!OML:ASF E:\emotionWalksFemale\Project 1\Capture day 1\Session 1\Female1.ASF
:FULLY-SPECIFIED
:DEGREES
2260
root 5.14131 15.4956 34.6031 334.087 66.007 -21.6816
lowerback 4.50146 4.11816 -0.0760142
upperback -5.93755 5.48805 -1.34245
thorax -8.64602 2.66518 -2.02657
lowerneck -12.4726 -0.705715 -1.35508
upperneck 22.9607 0.150659 -2.09397
head 9.28164 -0.153172 -0.452622
rclavicle 1.15295e-014 -1.74931e-014
rhumerus 32.5059 14.8013 -39.9067
rradius 27.5053
rwrist 20.9127
rhand -3.27364 -42.3247
rfingers 7.12502
rthumb -157.549 -251.04
lclavicle 1.15295e-014 -1.74931e-014
lhumerus 24.9703 -4.90138 48.0024
lradius 27.1724
lwrist -32.9677
lhand -3.4555 -40.2255
lfingers 7.12502
lthumb 22.2768 -11.4895
rfemur -7.1246 8.60142 18.0652
rtibia 29.2086
rfoot -22.1599 -25.3109
rtoes -3.15922
lfemur 2.3996 -25.5864 -23.7544
ltibia 27.5518
lfoot -22.7646 24.1294
ltoes 8.61142
2261
root 5.19033 15.5014 34.6506 333.491 66.7844 -22.3063
lowerback 4.44568 4.10752 -0.159032
upperback -5.9419 5.46449 -1.39489
thorax -8.62129 2.65827 -2.02872
lowerneck -12.4862 -0.730923 -1.29428
upperneck 22.8847 0.0979863 -2.09012
head 9.25711 -0.171638 -0.467333
rclavicle 4.01545e-014 -1.11319e-014
rhumerus 32.5385 14.453 -40.2401
rradius 27.394
rwrist 21.3273
rhand -3.23768 -42.2798
rfingers 7.12502
rthumb -157.514 -250.991
lclavicle 4.01545e-014 -1.11319e-014
lhumerus 24.7478 -5.20512 47.8003
lradius 27.4934
lwrist -32.6694
lhand -3.25821 -40.0477
lfingers 7.12502
lthumb 22.4661 -11.3345
rfemur -7.40118 9.70044 17.8989
rtibia 28.2206
rfoot -21.0507 -26.0713
rtoes -8.74969
lfemur 2.55615 -25.7382 -23.7157
ltibia 27.5096
lfoot -22.7281 23.5606
ltoes 9.12057
2262
root 5.23524 15.4933 34.7009 332.671 67.4993 -23.1295
lowerback 4.53186 4.08666 -0.1988
upperback -5.98179 5.43499 -1.38235
thorax -8.72137 2.64547 -2.00053
lowerneck -12.8587 -0.770985 -0.892055
upperneck 23.063 0.0568563 -2.47644
head 9.38832 -0.201973 -0.675391
rclavicle -1.15295e-014 0
rhumerus 32.5591 14.356 -40.3043
rradius 27.3939
rwrist 21.4788
rhand -3.18544 -42.2238
rfingers 7.12502
rthumb -157.464 -250.929
lclavicle -1.15295e-014 0
lhumerus 24.604 -4.31679 48.6738
lradius 27.4068
lwrist -33.8634
lhand -3.74047 -40.0046
lfingers 7.12502
lthumb 22.0032 -11.2362
rfemur -7.70218 10.0069 17.718
rtibia 27.2233
rfoot -20.4612 -25.6219
rtoes -10.8709
lfemur 2.64982 -25.7767 -23.5434
ltibia 27.5517
lfoot -22.5552 22.9324
ltoes 9.31348
2263
root 5.27986 15.4927 34.7533 331.861 68.1865 -23.984
lowerback 4.58612 4.06436 -0.317101
upperback -6.03554 5.39986 -1.3351
thorax -8.82893 2.63653 -1.89019
lowerneck -13.0217 -0.719494 -0.329682
upperneck 23.4248 0.227413 -3.27333
head 9.54808 -0.15932 -1.0284
rclavicle -2.90226e-014 6.36111e-015
rhumerus 32.6377 14.3517 -40.3041
rradius 27.3656
rwrist 21.5238
rhand -3.14114 -42.1451
rfingers 7.12502
rthumb -157.421 -250.845
lclavicle -2.90226e-014 6.36111e-015
lhumerus 24.6986 -4.29944 48.649
lradius 27.2837
lwrist -33.7829
lhand -4.00241 -39.8207
lfingers 7.12502
lthumb 21.7516 -11.0228
rfemur -7.98953 11.0915 17.6055
rtibia 26.2835
rfoot -19.9296 -25.5032
rtoes -12.0014
lfemur 2.64946 -25.7622 -23.3191
ltibia 27.6568
lfoot -22.1861 22.3912
ltoes 7.84913
2264
root 5.33396 15.4967 34.8081 330.927 69.0867 -24.9484
lowerback 4.43939 4.06942 -0.44463
upperback -6.10115 5.39312 -1.43539
thorax -8.81662 2.64016 -1.91619
lowerneck -12.8067 -0.77811 0.14122
upperneck 23.59 0.14952 -3.65803
head 9.56241 -0.190027 -1.25038
rclavicle -1.90833e-014 2.70347e-014
rhumerus 32.3657 14.2681 -40.3908
rradius 27.3113
rwrist 21.6685
rhand -3.49815 -41.7777
rfingers 7.12502
rthumb -157.764 -250.519
lclavicle -1.90833e-014 2.70347e-014
lhumerus 24.7405 -4.98683 48.2565
lradius 27.4423
lwrist -33.3396
lhand -3.83162 -39.4618
lfingers 7.12502
lthumb 21.9156 -10.6831
rfemur -8.16937 12.0857 17.3877
rtibia 25.3941
rfoot -20.3926 -25.4717
rtoes -11.505
lfemur 2.66296 -25.7584 -23.18
ltibia 27.7843
lfoot -21.806 21.7468
ltoes 4.97768
2265
root 5.38347 15.4956 34.8601 329.854 69.9984 -26.062
lowerback 4.36042 4.12063 -0.468322
upperback -6.2307 5.45411 -1.59719
thorax -8.89683 2.66687 -2.08169
lowerneck -12.2816 -0.934442 0.395686
upperneck 23.5711 -0.117268 -3.67275
head 9.44798 -0.283043 -1.32518
rclavicle -1.39149e-014 -4.13472e-014
rhumerus 31.9043 14.2706 -40.4055
rradius 27.3002
rwrist 21.8302
rhand -3.98584 -41.3834
rfingers 7.12502
rthumb -158.232 -250.179
lclavicle -1.39149e-014 -4.13472e-014
lhumerus 24.5406 -6.26024 47.4012
lradius 28.0222
lwrist -32.2446
lhand -3.82383 -39.276
lfingers 7.12502
lthumb 21.9231 -10.4981
rfemur -8.33347 13.1331 17.1542
rtibia 24.4139
rfoot -20.6648 -25.6117
rtoes -11.569
lfemur 2.74996 -26.2211 -23.1612
ltibia 27.8777
lfoot -21.6583 21.446
ltoes 3.14639
2266
root 5.42976 15.4985 34.9053 329.032 70.9012 -26.9547
lowerback 4.39077 4.11046 -0.564789
upperback -6.30987 5.43167 -1.64635
thorax -9.00656 2.66016 -2.0859
lowerneck -12.0494 -1.02433 0.338777
upperneck 23.4786 -0.219789 -3.71244
head 9.36926 -0.335319 -1.33772
rclavicle -2.78299e-014 9.54166e-015
rhumerus 31.8835 14.3451 -40.2855
rradius 27.3089
rwrist 21.8691
rhand -3.99027 -41.5245
rfingers 7.12502
rthumb -158.237 -250.321
lclavicle -2.78299e-014 9.54166e-015
lhumerus 24.7357 -5.6565 48.4334
lradius 27.5052
lwrist -33.281
lhand -4.03323 -39.4797
lfingers 7.12502
lthumb 21.7221 -10.6784
rfemur -8.58559 14.2142 16.8206
rtibia 23.483
rfoot -20.0625 -25.9593
rtoes -13.9332
lfemur 2.76995 -26.6693 -23.2085
ltibia 27.9413
lfoot -21.7323 21.0505
ltoes 3.77021
2267
root 5.47837 15.4988 34.946 327.92 71.8103 -28.0317
lowerback 4.56557 3.99828 -0.431103
upperback -6.28665 5.28642 -1.7062
thorax -9.06931 2.57645 -2.21875
lowerneck -12.2286 -0.980212 0.118561
upperneck 23.4863 -0.132832 -3.60391
head 9.40955 -0.303822 -1.25437
rclavicle -2.10712e-014 2.8625e-014
rhumerus 32.2079 14.2271 -40.4703
rradius 27.1788
rwrist 22.0558
rhand -3.96303 -41.7765
rfingers 7.12502
rthumb -158.211 -250.57
lclavicle -2.10712e-014 2.8625e-014
lhumerus 24.5472 -6.81567 46.797
lradius 27.9995
lwrist -31.0487
lhand -3.62819 -39.1484
lfingers 7.12502
lthumb 22.111 -10.3926
rfemur -8.73353 15.2839 16.5471
rtibia 22.6764
rfoot -19.4758 -26.4929
rtoes -16.6407
lfemur 2.75074 -26.4493 -23.0655
ltibia 28.0419
lfoot -21.5632 20.0653
ltoes 2.57999
2268
root 5.52344 15.4914 34.9991 327.097 72.4931 -28.7611
lowerback 4.70072 3.96755 -0.616937
upperback -6.22096 5.22858 -1.66421
thorax -9.09995 2.56064 -2.07305
lowerneck -12.5416 -0.782577 -0.316891
upperneck 23.3806 0.0899365 -3.01442
head 9.43833 -0.17812 -0.952406
rclavicle 0 -3.02153e-014
rhumerus 32.5386 14.1276 -40.5318
rradius 27.1473
rwrist 22.3061
rhand -3.83439 -41.9098
rfingers 7.12502
rthumb -158.087 -250.689
lclavicle 0 -3.02153e-014
lhumerus 24.4676 -6.55494 46.6743
lradius 28.0456
lwrist -31.0187
lhand -3.73676 -39.2117
lfingers 7.12502
lthumb 22.0067 -10.4437
rfemur -8.82422 17.0349 16.3126
rtibia 21.8514
rfoot -19.5499 -27.1092
rtoes -17.0689
lfemur 2.83254 -26.0022 -22.9079
ltibia 28.1366
lfoot -21.2 19.2422
ltoes -0.800523
